HIERARCHY
ROOT hip
{
	OFFSET 0.000000 0.000000 0.000000 
	CHANNELS 6 Xposition Yposition Zposition Xrotation Zrotation Yrotation
	JOINT abdomen
	{
		OFFSET 0.000000 3.402643 0.000000 
		CHANNELS 3 Xrotation Zrotation Yrotation
		JOINT chest
		{
			OFFSET 0.000000 8.438565 -0.680529 
			CHANNELS 3 Xrotation Zrotation Yrotation
			JOINT neck
			{
				OFFSET 0.000000 10.207942 -0.272212 
				CHANNELS 3 Xrotation Zrotation Yrotation
				JOINT head
				{
					OFFSET 0.000000 3.130431 0.000000 
					CHANNELS 3 Xrotation Zrotation Yrotation
					End Site
					{
						OFFSET 0.000000 3.130435 0.000000 
					}
				}
			}
			JOINT lCollar
			{
				OFFSET 3.470700 6.669187 -0.816635 
				CHANNELS 3 Yrotation Zrotation Xrotation
				JOINT lShldr
				{
					OFFSET 3.198488 0.000000 0.000000 
					CHANNELS 3 Zrotation Yrotation Xrotation
					JOINT lForeArm
					{
						OFFSET 10.139888 0.000000 0.000000 
						CHANNELS 3 Yrotation Zrotation Xrotation
						JOINT lHand
						{
							OFFSET 8.370511 0.000000 0.000000 
							CHANNELS 3 Zrotation Yrotation Xrotation
							End Site
							{
								OFFSET 4.083176 0.000000 0.000000 
							}
						}
					}
				}
			}
			JOINT rCollar
			{
				OFFSET -3.470700 6.669187 -0.816635 
				CHANNELS 3 Yrotation Zrotation Xrotation
				JOINT rShldr
				{
					OFFSET -3.198488 0.000000 0.000000 
					CHANNELS 3 Zrotation Yrotation Xrotation
					JOINT rForeArm
					{
						OFFSET -10.139888 0.000000 0.000000 
						CHANNELS 3 Yrotation Zrotation Xrotation
						JOINT rHand
						{
							OFFSET -8.370511 0.000000 0.000000 
							CHANNELS 3 Zrotation Yrotation Xrotation
							End Site
							{
								OFFSET -4.083176 0.000000 0.000000 
							}
						}
					}
				}
			}
		}
	}
	JOINT lThigh
	{
		OFFSET 5.308129 -1.633274 1.361059 
		CHANNELS 3 Xrotation Zrotation Yrotation
		JOINT lShin
		{
			OFFSET -2.041588 -20.007561 0.000000 
			CHANNELS 3 Xrotation Zrotation Yrotation
			JOINT lFoot
			{
				OFFSET 0.000000 -19.190928 -1.224953 
				CHANNELS 3 Xrotation Yrotation Zrotation
				End Site
				{
					OFFSET 0.000000 -2.449906 4.627600 
				}
			}
		}
	}
	JOINT rThigh
	{
		OFFSET -5.308129 -1.633274 1.361059 
		CHANNELS 3 Xrotation Zrotation Yrotation
		JOINT rShin
		{
			OFFSET 2.041588 -20.007561 0.000000 
			CHANNELS 3 Xrotation Zrotation Yrotation
			JOINT rFoot
			{
				OFFSET 0.000000 -19.190928 -1.224953 
				CHANNELS 3 Xrotation Yrotation Zrotation
				End Site
				{
					OFFSET 0.000000 -2.449906 4.627600 
				}
			}
		}
	}
}
MOTION
Frames: 18
Frame Time: 0.011111
18.530319 64.186913 -15.466998 12.008821 2.244160 -2.148420 35.946884 -7.715158 -0.637289 -25.737907 -0.371611 0.955898 -24.298353 11.394028 4.954404 30.279066 -24.960043 9.501365 3.020945 -4.671623 1.932447 -61.556286 -32.761677 35.796814 -86.065285 1.412215 28.837479 8.524705 12.647240 -32.181049 -4.079493 7.469375 2.114597 65.178215 19.017941 37.496899 73.351784 -8.636935 18.781656 -8.534408 -12.637552 54.134621 -40.420826 -0.301976 -6.387018 56.393101 -3.154473 -7.841672 -27.022753 -10.552348 -7.559864 -37.125069 -8.671047 -4.388265 86.598869 -0.722317 9.645087 4.289136 -2.242646 3.014025 
18.530632 64.419861 -15.135872 11.726112 2.512233 -2.301132 35.674374 -7.908848 -1.084856 -26.069092 0.230925 0.841352 -23.498901 11.146630 5.238052 30.214411 -24.762228 9.824366 3.020945 -4.671623 1.932447 -61.884594 -31.641459 35.783012 -86.100548 1.359425 29.017437 8.524705 12.647240 -32.640026 -4.079493 7.469375 2.114597 64.908180 18.500601 37.321060 73.000130 -8.705125 18.602577 -8.534408 -12.637552 53.607285 -38.667942 -0.488215 -6.397753 54.913441 -3.310888 -7.721563 -26.852379 -10.428143 -7.462399 -38.874237 -9.042633 -4.434035 88.590111 -1.005374 9.703106 3.073094 -2.027405 3.025612 
18.609426 64.729416 -14.690305 10.597384 2.891691 -0.641034 36.848991 -7.145604 -2.145928 -25.737762 -0.040141 0.504076 -25.065260 10.985586 5.185343 31.435860 -24.180645 9.919559 3.020945 -4.671623 1.932447 -61.727131 -32.084225 36.290497 -86.121498 1.329521 29.127281 8.524705 12.647240 -32.630260 -4.079493 7.469375 2.114597 65.350655 19.108984 36.409996 72.348549 -8.826136 18.269365 -8.534408 -12.637552 53.265480 -35.481098 -1.971305 -7.593475 53.335781 -3.467006 -7.560493 -26.764624 -10.251647 -7.364740 -38.640949 -10.993054 -6.004945 90.106125 -1.219425 9.721629 0.983056 -1.249817 3.036444 
18.634754 64.931091 -14.395134 10.472356 3.037266 -0.421674 36.401340 -7.031177 -2.378875 -25.825577 0.050666 0.417345 -24.765444 10.853080 5.513173 31.599051 -23.878172 10.500628 3.020945 -4.671623 1.932447 -61.692986 -31.576956 36.665611 -86.146904 1.302934 29.285994 8.524705 12.647240 -32.542370 -4.079493 7.469375 2.114597 65.468361 18.625481 35.930790 71.972618 -8.886589 18.077621 -8.534408 -12.637552 53.245953 -33.995209 -2.254042 -7.778909 51.913902 -3.613112 -7.404180 -26.694975 -9.495667 -6.956208 -40.471008 -11.579413 -6.310028 91.757751 -1.455080 9.745605 0.177018 -1.298280 3.059348 
18.623810 65.128395 -14.117786 10.665642 3.238978 -1.317625 36.265099 -7.580820 -1.857997 -25.727718 0.097700 0.619017 -26.008453 10.902639 5.163626 32.127991 -23.789431 10.047920 3.020945 -4.671623 1.932447 -61.600006 -32.184460 37.106655 -86.165558 1.282045 29.395243 8.524705 12.647240 -32.141979 -4.079493 7.469375 2.114597 65.651390 18.960415 35.113842 71.828079 -8.911901 18.002567 -8.534408 -12.637552 53.392437 -33.048080 -1.981302 -7.302758 50.470097 -3.742775 -7.293992 -26.488949 -9.013904 -6.673593 -43.225620 -11.355291 -5.569854 93.215065 -1.668779 9.760284 0.085084 -1.836371 3.033131 
18.660393 65.393234 -13.761644 10.045222 3.323019 -0.284208 36.659142 -6.847485 -2.683611 -26.128101 0.277558 0.306767 -25.264879 11.349318 5.060150 31.915094 -24.467840 9.755099 3.020945 -4.671623 1.932447 -61.691360 -31.518375 37.349205 -86.163322 1.280615 29.375790 8.524705 12.647240 -32.395885 -4.079493 7.469375 2.114597 65.500298 18.448305 34.789814 71.420792 -8.973969 17.797565 -8.534408 -12.637552 53.216656 -31.047947 -2.616212 -8.357324 49.095139 -3.869754 -7.146876 -26.026072 -9.374989 -6.817049 -43.899864 -12.458858 -6.464290 94.313972 -1.796533 9.774446 -1.246093 -1.876716 3.030401 
18.687906 65.628990 -13.387055 9.461962 3.596238 0.222801 36.784798 -6.557592 -3.404907 -26.303734 0.628070 0.074304 -24.380625 11.706374 5.247416 31.461512 -25.251328 9.976748 3.020945 -4.671623 1.932447 -61.917686 -30.673721 37.425323 -86.172287 1.275910 29.444717 8.524705 12.647240 -32.796272 -4.079493 7.469375 2.114597 65.249504 18.145304 34.627483 70.573593 -9.092380 17.374809 -8.534408 -12.637552 52.474468 -28.917248 -3.132448 -8.921196 47.708572 -4.023438 -6.978549 -26.020643 -9.358220 -6.815859 -44.588089 -13.388370 -6.778390 95.206848 -1.961784 9.772569 -3.352941 -1.497694 3.046498 
18.742628 65.789703 -13.046860 9.707007 3.957961 -0.958148 35.969608 -7.274074 -2.705459 -25.903309 0.486016 0.347010 -25.416523 11.145690 5.477582 32.187248 -24.061392 10.580812 3.020945 -4.671623 1.932447 -61.708450 -30.687725 37.911602 -86.177429 1.268373 29.474506 8.524705 12.647240 -33.138073 -4.079493 7.469375 2.114597 65.512459 18.271898 33.957439 70.332085 -9.122628 17.259850 -8.534408 -12.637552 52.533058 -27.952808 -3.094122 -8.423974 46.409748 -4.140728 -6.838500 -26.222143 -8.890476 -6.571324 -47.146000 -13.192638 -5.563310 96.071846 -2.079788 9.778992 -6.176556 -0.491402 3.109447 
18.771084 65.979195 -12.704789 9.553375 4.155809 -0.805847 35.831173 -7.212582 -2.792784 -25.766638 0.432998 0.313720 -25.165138 10.975574 5.609752 31.598333 -23.600132 10.936141 3.020945 -4.671623 1.932447 -61.525963 -30.583944 38.374535 -86.179054 1.269105 29.484230 8.524705 12.647240 -33.460342 -4.079493 7.469375 2.114597 65.722206 18.312563 33.292061 69.943115 -9.168141 17.067947 -8.534408 -12.637552 52.601421 -26.578348 -3.388152 -8.829257 45.179771 -4.238178 -6.694450 -26.102337 -8.858577 -6.580757 -48.679356 -13.759237 -5.472351 96.655411 -2.167356 9.764615 -5.738712 -1.332120 3.026516 
18.752634 66.108017 -12.409932 9.299500 4.374078 -1.213462 35.595966 -7.370599 -3.187861 -26.274544 1.228616 0.190952 -24.616764 10.989746 5.718069 32.184769 -23.937943 10.837701 3.020945 -4.671623 1.932447 -62.088863 -29.263594 37.998695 -86.187927 1.264285 29.553164 8.524705 12.647240 -34.319717 -4.079493 7.469375 2.114597 65.051506 17.683846 33.481316 69.460434 -9.223452 16.834948 -8.534408 -12.637552 52.591656 -25.232668 -3.388496 -8.647750 44.085461 -4.335863 -6.580044 -26.146105 -8.513862 -6.389044 -50.415936 -13.651037 -4.891531 97.179802 -2.244932 9.776145 -8.023505 -0.900927 3.017764 
18.734810 66.229027 -12.094126 9.053943 4.372571 -1.379803 35.641216 -7.332481 -3.070897 -26.108578 1.347538 0.212292 -25.507242 10.871317 5.672997 32.808060 -23.644426 10.851424 3.020945 -4.671623 1.932447 -62.043240 -29.420815 38.451054 -86.178482 1.268434 29.474493 8.524705 12.647240 -34.056046 -4.079493 7.469375 2.114597 65.141846 17.944233 32.872345 68.985542 -9.268056 16.596348 -8.534408 -12.637552 52.337753 -23.894777 -3.212755 -8.510533 42.981449 -4.423635 -6.449972 -26.132675 -8.374030 -6.315571 -51.745827 -13.534752 -4.505682 97.402176 -2.285234 9.799024 -9.614417 -0.831722 3.011200 
18.741066 66.352226 -11.750491 8.822354 4.602857 -1.262309 35.558548 -7.319332 -3.238873 -25.757044 1.468190 0.160381 -25.375357 11.272511 5.631720 32.277184 -24.283611 10.871213 3.020945 -4.671623 1.932447 -62.005802 -29.880692 38.786270 -86.156502 1.287336 29.336065 8.524705 12.647240 -34.456432 -4.079493 7.469375 2.114597 65.196892 18.303726 32.284374 68.307236 -9.320693 16.266062 -8.534408 -12.637552 52.074078 -22.523321 -3.377457 -8.488255 41.874939 -4.521387 -6.340757 -25.842037 -8.740996 -6.496252 -52.947849 -13.964691 -4.096805 97.511002 -2.283882 9.764808 -10.861085 -0.466525 3.020954 
18.748257 66.505745 -11.394975 8.520240 4.737101 -1.305018 35.499607 -7.269853 -3.308437 -25.678995 1.563481 0.134179 -25.852940 11.583481 5.133712 33.078220 -24.507095 9.944623 3.020945 -4.671623 1.932447 -62.006866 -29.919743 38.991341 -86.138802 1.308190 29.226803 8.524705 12.647240 -35.335339 -4.079493 7.469375 2.114597 65.241913 18.429039 31.748892 67.589233 -9.374039 15.922787 -8.534408 -12.637552 52.015484 -21.046938 -3.415841 -8.468030 40.720310 -4.609162 -6.184557 -25.679007 -8.919650 -6.585118 -54.234715 -14.081386 -3.798649 97.073746 -2.206212 9.776404 -11.442335 -0.780646 2.933293 
18.757950 66.621124 -11.064161 8.209235 4.902439 -1.227066 35.636356 -7.207043 -3.432070 -26.011206 1.600318 0.092228 -25.382109 11.610897 5.279237 32.833260 -24.238216 10.242061 3.020945 -4.671623 1.932447 -61.911606 -29.345350 39.311165 -86.137459 1.307431 29.217083 8.524705 12.647240 -36.204479 -4.079493 7.469375 2.114597 65.315346 18.064556 31.251400 67.153885 -9.396903 15.708965 -8.534408 -12.637552 52.083839 -19.563337 -3.562701 -8.582198 39.552639 -4.700619 -6.075602 -25.604313 -8.792002 -6.491072 -55.384869 -14.373425 -3.569387 96.577995 -2.147970 9.763583 -12.188067 -0.912170 2.890627 
18.785776 66.720245 -10.723026 7.929295 5.184354 -1.053543 35.787643 -7.224491 -3.550403 -26.108929 1.617065 0.058446 -25.706984 11.622254 5.256018 33.112305 -23.998837 10.298225 3.020945 -4.671623 1.932447 -61.843765 -29.043915 39.831814 -86.131554 1.314118 29.177341 8.524705 12.647240 -36.888073 -4.079493 7.469375 2.114597 65.444916 17.854259 30.648558 66.739410 -9.416008 15.518791 -8.534408 -12.637552 52.454941 -18.068583 -3.913764 -8.825641 38.414425 -4.788732 -5.937064 -25.442245 -8.826626 -6.508051 -56.531300 -14.941175 -3.147784 95.964836 -2.070158 9.775525 -13.045267 -0.766312 2.891011 
18.797659 66.818115 -10.376891 7.772676 5.263199 -1.233943 35.761127 -7.226590 -3.268133 -25.727840 1.564479 0.142572 -26.566216 11.558474 5.117520 33.443481 -23.782030 10.218235 3.020945 -4.671623 1.932447 -61.814053 -29.425480 40.313747 -86.114586 1.336044 29.087784 8.524705 12.647240 -37.503304 -4.079493 7.469375 2.114597 65.684784 18.362898 29.846268 66.123756 -9.440137 15.228742 -8.534408 -12.637552 52.855328 -16.890789 -3.905083 -8.812638 37.404064 -4.862995 -5.814373 -25.354815 -8.917870 -6.547144 -57.698154 -14.852039 -2.546024 95.091461 -1.913155 9.771504 -13.818255 -0.764502 2.839582 
18.784527 66.894402 -10.039823 7.624952 5.301977 -1.488082 35.373272 -7.194510 -3.371540 -25.992371 2.030812 0.081103 -25.117846 11.636250 5.380084 32.384090 -24.189491 10.507745 3.020945 -4.671623 1.932447 -62.146656 -28.441874 40.394344 -86.111755 1.344901 29.077215 8.524705 12.647240 -38.362682 -4.079493 7.469375 2.114597 65.337219 18.112572 29.650650 65.156174 -9.461172 14.766015 -8.534408 -12.637552 52.708843 -15.806040 -3.787932 -8.593104 36.503071 -4.915786 -5.702618 -25.368021 -8.997307 -6.577975 -58.804016 -14.627747 -2.010639 94.050529 -1.786787 9.773024 -14.348981 -0.922577 2.779207 
18.762951 66.954750 -9.696814 7.379895 5.279655 -1.463452 35.018024 -6.869480 -3.960198 -26.503723 3.017641 -0.177300 -23.345999 11.509435 5.797617 31.480370 -24.700094 10.903655 3.020945 -4.671623 1.932447 -63.029465 -26.821505 40.054752 -86.115356 1.336127 29.087774 8.524705 12.647240 -39.466198 -4.079493 7.469375 2.114597 64.211197 17.002649 30.320726 65.048569 -9.459813 14.716766 -8.534408 -12.637552 52.874863 -14.639072 -3.668291 -8.535089 35.669621 -4.974373 -5.598762 -25.383514 -9.087424 -6.640152 -59.522884 -14.617076 -1.666142 92.846436 -1.610686 9.745385 -14.750903 -1.032388 2.720955 
